<?xml version="1.0" encoding="iso-8859-1"?>
<!-- Generator: Adobe Illustrator 20.1.0, SVG Export Plug-In . SVG Version: 6.00 Build 0)  -->
<svg xmlns="http://www.w3.org/2000/svg" xmlns:xlink="http://www.w3.org/1999/xlink" version="1.1" id="&#1057;&#1083;&#1086;&#1081;_1" x="0px" y="0px" viewBox="0 0 64 64" style="enable-background:new 0 0 64 64;" xml:space="preserve">
<linearGradient id="SVGID_1__44011" gradientUnits="userSpaceOnUse" x1="14" y1="16.5" x2="14" y2="26.25" spreadMethod="reflect">
	<stop offset="0" style="stop-color:#6DC7FF"/>
	<stop offset="1" style="stop-color:#E6ABFF"/>
</linearGradient>
<path style="fill:url(#SVGID_1__44011);" d="M18,17c-4.418,0-8,3.582-8,8h8V17z"/>
<linearGradient id="SVGID_2__44011" gradientUnits="userSpaceOnUse" x1="32" y1="12.25" x2="32" y2="52.1485" spreadMethod="reflect">
	<stop offset="0" style="stop-color:#1A6DFF"/>
	<stop offset="1" style="stop-color:#C822FF"/>
</linearGradient>
<path style="fill:url(#SVGID_2__44011);" d="M51.997,25.079C51.997,25.053,52,25.027,52,25c0-6.617-5.383-12-12-12  c-4.913,0-9.146,2.968-11,7.205C27.146,15.968,22.913,13,18,13c-6.617,0-12,5.383-12,12c0,13.898,19.649,26,23,26  c1.89,0,6.824-2.878,11.179-6.49C42.208,46.05,44.069,47,45,47c2.673,0,13-7.812,13-15C58,28.48,55.385,25.566,51.997,25.079z   M29,49C26.771,49,8,37.634,8,25c0-5.514,4.486-10,10-10s10,4.486,10,10h2c0-5.514,4.486-10,10-10s10,4.486,10,10  c0,0.025-0.003,0.051-0.003,0.076c-2.119,0.306-3.936,1.56-4.997,3.322C43.774,26.363,41.543,25,39,25c-3.859,0-7,3.141-7,7  c0,4.043,3.267,8.284,6.602,11.22C34.021,46.964,29.907,49,29,49z M44,44.607C41.117,43.078,34,37.277,34,32c0-2.757,2.243-5,5-5  s5,2.243,5,5V44.607z M46,44.611V32c0-2.757,2.243-5,5-5s5,2.243,5,5C56,37.282,48.871,43.089,46,44.611z"/>
<linearGradient id="SVGID_3__44011" gradientUnits="userSpaceOnUse" x1="51" y1="12.25" x2="51" y2="52.1485" spreadMethod="reflect">
	<stop offset="0" style="stop-color:#1A6DFF"/>
	<stop offset="1" style="stop-color:#C822FF"/>
</linearGradient>
<path style="fill:url(#SVGID_3__44011);" d="M51,29c-1.654,0-3,1.346-3,3s1.346,3,3,3s3-1.346,3-3S52.654,29,51,29z M51,33  c-0.552,0-1-0.448-1-1s0.448-1,1-1s1,0.448,1,1S51.552,33,51,33z"/>
<linearGradient id="SVGID_4__44011" gradientUnits="userSpaceOnUse" x1="39" y1="12.25" x2="39" y2="52.1485" spreadMethod="reflect">
	<stop offset="0" style="stop-color:#1A6DFF"/>
	<stop offset="1" style="stop-color:#C822FF"/>
</linearGradient>
<path style="fill:url(#SVGID_4__44011);" d="M39,29c-1.654,0-3,1.346-3,3s1.346,3,3,3s3-1.346,3-3S40.654,29,39,29z M39,33  c-0.552,0-1-0.448-1-1s0.448-1,1-1s1,0.448,1,1S39.552,33,39,33z"/>
</svg>
