<?xml version="1.0" encoding="iso-8859-1"?>
<!-- Generator: Adobe Illustrator 19.1.1, SVG Export Plug-In . SVG Version: 6.00 Build 0)  -->
<svg version="1.1" id="Layer_1" xmlns="http://www.w3.org/2000/svg" xmlns:xlink="http://www.w3.org/1999/xlink" x="0px" y="0px"
	 viewBox="0 0 40 40" style="enable-background:new 0 0 40 40;" xml:space="preserve">
<g>
	<g>
		<path style="fill:#99C99E;" d="M15.74,33.519l4.76-4.379v2.36h13.738l-3.182-5.649l3.488-1.958l3.372,5.986
			c0.672,1.195,0.736,2.612,0.165,3.7c-0.632,1.203-1.807,1.921-3.142,1.921H20.5v2.366L15.74,33.519z"/>
		<path style="fill:#5E9C76;" d="M34.353,24.573l3.127,5.552c0.591,1.049,0.651,2.283,0.158,3.222
			C37.094,34.382,36.085,35,34.938,35H21h-1v1v0.732l-3.52-3.215L20,30.279V31v1h1h12.382h1.711l-0.84-1.491l-2.516-4.467
			L34.353,24.573 M34.734,23.212l-4.359,2.448L33.382,31H21v-3l-6,5.519L21,39v-3h13.938c1.511,0,2.867-0.822,3.585-2.189
			c0.685-1.305,0.551-2.893-0.172-4.177L34.734,23.212L34.734,23.212z"/>
	</g>
	<g>
		<path style="fill:#99C99E;" d="M5.062,35.5c-1.335,0-2.51-0.718-3.143-1.921c-0.571-1.088-0.507-2.505,0.165-3.7l6.758-11.997
			l-2.021-1.103l6.096-2.097l1.565,6.275l-2.129-1.161L5.762,31.5h5.556v4H5.062z"/>
		<path style="fill:#5E9C76;" d="M12.564,15.332l1.157,4.641l-0.696-0.379l-0.866-0.472l-0.484,0.859l-5.93,10.528L4.907,32h1.711
			h4.2v3H5.062c-1.147,0-2.156-0.618-2.7-1.654c-0.493-0.939-0.432-2.173,0.158-3.222l6.509-11.556l0.498-0.883L8.636,17.2
			l-0.58-0.316L12.564,15.332 M13.271,14.032l-7.684,2.643l2.571,1.402L1.649,29.634c-0.723,1.284-0.858,2.872-0.172,4.177
			C2.194,35.178,3.55,36,5.062,36h6.756v-5h-5.2l5.93-10.528l2.696,1.47L13.271,14.032L13.271,14.032z"/>
	</g>
	<g>
		<path style="fill:#99C99E;" d="M24.712,19.408l2.067-1.151L20,6.222l-2.878,5.11l-3.535-1.876l2.683-4.763
			C17.043,3.32,18.438,2.5,20,2.5s2.957,0.82,3.73,2.193l6.543,11.616l2.063-1.149l-1.481,6.275L24.712,19.408z"/>
		<path style="fill:#5E9C76;" d="M20,3c1.379,0,2.611,0.725,3.294,1.939l6.299,11.183l0.489,0.867l0.87-0.485l0.637-0.355
			l-1.095,4.64l-4.542-1.499l0.633-0.352l0.878-0.489l-0.493-0.875L20.871,6.75L20,5.203L19.129,6.75l-2.203,3.912l-2.651-1.406
			l2.431-4.316C17.389,3.725,18.621,3,20,3 M20,2c-1.745,0-3.302,0.915-4.166,2.448L12.9,9.658l4.418,2.344L20,7.24l6.097,10.824
			l-2.623,1.462l7.742,2.555l1.867-7.909l-2.618,1.459L24.166,4.448C23.302,2.915,21.745,2,20,2L20,2z"/>
	</g>
</g>
</svg>
