<?xml version="1.0"?>
<svg xmlns="http://www.w3.org/2000/svg" id="Layer_1" data-name="Layer 1" viewBox="0 0 64 64"><title>Icons8 RSL Colored Part 7</title><path d="M48.79,15.13,46.06,17.3,39.87,6.16a9,9,0,0,0-15.73,0L19,15.41a2,2,0,0,0,.77,2.72l1.75,1a2,2,0,0,0,2.72-.78l5.14-9.26a3,3,0,0,1,5.24,0l6.12,11.19-3.38,1.2a1,1,0,0,0-.07,1.86l10.2,4.56a1,1,0,0,0,1.4-.78l.52-3.74h0l0,0,1-7.28A1,1,0,0,0,48.79,15.13Z" style="fill:#72caaf;"/><path d="M11.22,50.94A3,3,0,0,1,8.6,46.48l6-10.73L17.36,38A1,1,0,0,0,19,37.07L17.48,26a1,1,0,0,0-1.4-.78L5.87,29.76a1,1,0,0,0,.07,1.86l3.38,1.21-6,10.74a9,9,0,0,0,7.87,13.37H21a2,2,0,0,0,2-2v-2a2,2,0,0,0-2-2Z" style="fill:#72caaf;"/><path d="M23,52.94V54H11.24A6,6,0,0,1,6,45.07l5.2-9.28a2.69,2.69,0,0,1,4-.82h0L8.6,46.48a3,3,0,0,0,2.62,4.46H21A2,2,0,0,1,23,52.94Z" style="fill:#5dbc9d;"/><path d="M60.65,43.57l-4.9-8.81A2,2,0,0,0,53,34l-1.75,1a2,2,0,0,0-.78,2.72l4.9,8.81a3,3,0,0,1-2.62,4.46H40.06l.55-3.5a1,1,0,0,0-1.59-1l-9,6.72a1,1,0,0,0,0,1.6L39,61.5a1,1,0,0,0,1.59-1L40,57l8-.06h4.78A9,9,0,0,0,60.65,43.57Z" style="fill:#72caaf;"/><path d="M41.07,21.21,34.62,9.08a3,3,0,0,0-5.24,0l-5.14,9.25a2,2,0,0,1-2.73.78l-1-.54L27.31,7.09a5.4,5.4,0,0,1,9.36.11l5.71,10.3a2.63,2.63,0,0,1-1.3,3.71Z" style="fill:#5dbc9d;"/><path d="M52.76,54H42a3,3,0,0,1-3-3H53a2.57,2.57,0,0,0,2.37-1.54,2.94,2.94,0,0,0,0-3l-4.89-8.81A2,2,0,0,1,51.29,35l.8-.44L58,45.07A6,6,0,0,1,52.76,54Z" style="fill:#5dbc9d;"/><path d="M61.52,43.08l-4.9-8.81a3,3,0,0,0-4.08-1.17l-1.75,1a3,3,0,0,0-1.17,4.08L54.53,47a1.94,1.94,0,0,1,0,2,2,2,0,0,1-1.72,1H41.23l.37-2.41a2,2,0,0,0-3.18-1.91l-9,6.72a2,2,0,0,0,0,3.2l8.94,6.7a2,2,0,0,0,3.17-1.93L41.18,58,48,57.94h4.78a10,10,0,0,0,8.74-14.86ZM59.68,52a8,8,0,0,1-6.9,4H40a1,1,0,0,0-1,1.16l.59,3.54L30.67,54l9-6.72-.55,3.5a1,1,0,0,0,1,1.16H52.78A4,4,0,0,0,56.28,46l-4.9-8.81a1,1,0,0,1,.39-1.36l1.75-1a1,1,0,0,1,1.36.39l4.9,8.81A7.93,7.93,0,0,1,59.68,52Z" style="fill:#8d6c9f;"/><path d="M32,8.53a1.93,1.93,0,0,1,1.75,1L39.3,19.72,37,20.53a2,2,0,0,0-.15,3.71l10.2,4.56a2,2,0,0,0,1.79-.08,2,2,0,0,0,1-1.48l.5-3.61a1.08,1.08,0,0,0,0-.28l1-7.17a2,2,0,0,0-3.23-1.84h0l-1.81,1.44L40.74,5.68a10,10,0,0,0-17.48,0l-5.14,9.25A3,3,0,0,0,19.28,19L21,20a3,3,0,0,0,4.08-1.16l5.14-9.26A1.93,1.93,0,0,1,32,8.53Zm-3.5.06-5.14,9.26a1,1,0,0,1-.6.48,1,1,0,0,1-.76-.09l-1.75-1a1,1,0,0,1-.39-1.36L25,6.65a8,8,0,0,1,14,0l6.19,11.14a1,1,0,0,0,1.5.3l2.74-2.18-1,7.28v.05L47.89,27l-10.2-4.56,3.38-1.2a1,1,0,0,0,.54-1.42L35.5,8.59a4,4,0,0,0-7,0Z" style="fill:#8d6c9f;"/><path d="M21,50H11.22a2,2,0,0,1-1.72-1,1.94,1.94,0,0,1,0-2l5.39-9.7,1.88,1.5A2,2,0,0,0,20,36.94l-1.5-11.07a2,2,0,0,0-2.79-1.56L5.46,28.85a2,2,0,0,0,.14,3.71l2.27.81-5.4,9.71a10,10,0,0,0,8.74,14.86H21a3,3,0,0,0,3-3v-2A3,3,0,0,0,21,50Zm1,4.94A1.05,1.05,0,0,1,21,56H11.22a8.06,8.06,0,0,1-7-11.95l6-10.74a1,1,0,0,0-.54-1.43L6.28,30.67l10.21-4.54L18,37.21,15.18,35a1,1,0,0,0-1.5.3L7.72,46a4,4,0,0,0,3.5,5.94H21a1,1,0,0,1,1,1Z" style="fill:#8d6c9f;"/><path d="M24,33a1,1,0,0,0-1,1v2a1,1,0,0,0,2,0V34A1,1,0,0,0,24,33Z" style="fill:#8d6c9f;"/><path d="M30,36V34a1,1,0,0,0-2,0v2a1,1,0,0,0,2,0Z" style="fill:#8d6c9f;"/><path d="M33,34v2a1,1,0,0,0,2,0V34a1,1,0,0,0-2,0Z" style="fill:#8d6c9f;"/><path d="M38,34v2a1,1,0,0,0,2,0V34a1,1,0,0,0-2,0Z" style="fill:#8d6c9f;"/><path d="M43,34v2a1,1,0,0,0,2,0V34a1,1,0,0,0-2,0Z" style="fill:#8d6c9f;"/></svg>
